<svg width="24" height="24" viewBox="0 0 24 24" fill="none" xmlns="http://www.w3.org/2000/svg">
<g clip-path="url(#clip0_379_6719)">
<path d="M0.872759 22.3097C1.24399 22.3713 1.65468 22.4021 2.10482 22.4021C3.85883 22.4021 5.18931 21.893 6.09626 20.8749C7.01177 19.8652 7.46953 18.4021 7.46953 16.4855V6.18926C7.46953 5.59753 7.94922 5.11783 8.54096 5.11783H22.2386C23.2114 5.11783 24 4.32921 24 3.3564C24 2.38359 23.2114 1.59497 22.2386 1.59497H8.67503C6.30809 1.59497 4.38931 3.51375 4.38931 5.88069V16.5882C4.38931 18.7102 3.55081 19.7711 1.8738 19.7711C1.8017 19.7711 1.72787 19.7695 1.6523 19.7661C0.80178 19.7288 0 20.3263 0 21.1776C0 21.7215 0.33621 22.2206 0.872759 22.3097Z" fill="#1D1D1D"/>
<path d="M9.17998 10.4021C9.17998 9.42932 9.9686 8.6407 10.9414 8.6407H22.2386C23.2114 8.6407 24 9.42932 24 10.4021C24 11.3749 23.2114 12.1636 22.2386 12.1636H10.9414C9.9686 12.1636 9.17998 11.3749 9.17998 10.4021Z" fill="#1D1D1D"/>
<path d="M9.17998 17.4479C9.17998 16.475 9.9686 15.6864 10.9414 15.6864H22.2386C23.2114 15.6864 24 16.475 24 17.4479C24 18.4207 23.2114 19.2093 22.2386 19.2093H10.9414C9.9686 19.2093 9.17998 18.4207 9.17998 17.4479Z" fill="#1D1D1D"/>
</g>
<defs>
<clipPath id="clip0_379_6719">
<rect width="24" height="24" fill="white"/>
</clipPath>
</defs>
</svg>
