<svg width="24" height="24" viewBox="0 0 24 24" fill="none" xmlns="http://www.w3.org/2000/svg">
<g clip-path="url(#clip0_379_6721)">
<path d="M0.872759 22.3099C1.24399 22.3716 1.65468 22.4024 2.10482 22.4024C3.85883 22.4024 5.18931 21.8933 6.09626 20.8751C7.01177 19.8655 7.46953 18.4024 7.46953 16.4858V6.18951C7.46953 5.59777 7.94922 5.11808 8.54096 5.11808H22.2386C23.2114 5.11808 24 4.32946 24 3.35665C24 2.38383 23.2114 1.59521 22.2386 1.59521H8.67503C6.30809 1.59521 4.38931 3.514 4.38931 5.88094V16.5885C4.38931 18.7104 3.55081 19.7714 1.8738 19.7714C1.8017 19.7714 1.72787 19.7697 1.6523 19.7664C0.80178 19.729 0 20.3265 0 21.1779C0 21.7218 0.33621 22.2208 0.872759 22.3099Z" fill="#6996DB"/>
<path d="M9.17998 10.4024C9.17998 9.42956 9.9686 8.64094 10.9414 8.64094H22.2386C23.2114 8.64094 24 9.42956 24 10.4024C24 11.3752 23.2114 12.1638 22.2386 12.1638H10.9414C9.9686 12.1638 9.17998 11.3752 9.17998 10.4024Z" fill="#6996DB"/>
<path d="M9.17998 17.4481C9.17998 16.4753 9.9686 15.6867 10.9414 15.6867H22.2386C23.2114 15.6867 24 16.4753 24 17.4481C24 18.4209 23.2114 19.2095 22.2386 19.2095H10.9414C9.9686 19.2095 9.17998 18.4209 9.17998 17.4481Z" fill="#6996DB"/>
</g>
<defs>
<clipPath id="clip0_379_6721">
<rect width="24" height="24" fill="white"/>
</clipPath>
</defs>
</svg>
