<?xml version="1.0" standalone="no"?>
<!DOCTYPE svg PUBLIC "-//W3C//DTD SVG 1.1//EN" "http://www.w3.org/Graphics/SVG/1.1/DTD/svg11.dtd" >
<svg xmlns="http://www.w3.org/2000/svg">
<metadata>Generated by IcoMoon</metadata>
<defs>
<font id="icomoon" horiz-adv-x="1024">
<font-face units-per-em="1024" ascent="960" descent="-64" />
<missing-glyph horiz-adv-x="1024" />
<glyph unicode="&#x20;" horiz-adv-x="512" d="" />
<glyph unicode="&#xe900;" glyph-name="check" d="M695.467 549.972l-194.987-255.999c-3.977-5.163-9.079-9.348-14.921-12.233-5.845-2.884-12.271-4.395-18.786-4.407-6.481-0.034-12.885 1.408-18.726 4.215-5.837 2.807-10.961 6.912-14.98 11.998l-104.107 132.693c-3.446 4.425-5.986 9.489-7.476 14.895-1.49 5.41-1.9 11.059-1.206 16.623 0.693 5.568 2.476 10.944 5.247 15.821s6.475 9.161 10.901 12.608c8.94 6.959 20.278 10.082 31.52 8.683 5.566-0.695 10.942-2.479 15.82-5.248 4.877-2.773 9.161-6.477 12.607-10.901l69.547-88.747 161.28 213.332c3.418 4.483 7.684 8.248 12.557 11.081s10.257 4.679 15.846 5.432c5.585 0.753 11.264 0.398 16.713-1.044s10.56-3.944 15.044-7.362c4.484-3.418 8.247-7.685 11.081-12.558s4.681-10.257 5.431-15.843c0.755-5.586 0.397-11.267-1.045-16.716s-3.942-10.561-7.36-15.043v-1.28z" />
<glyph unicode="&#xe901;" glyph-name="chevron-down" d="M512 298.671c-5.615-0.034-11.183 1.041-16.38 3.166s-9.929 5.252-13.914 9.207l-170.667 170.667c-3.978 3.977-7.134 8.7-9.287 13.897s-3.261 10.769-3.261 16.397c0 5.623 1.108 11.196 3.261 16.393s5.309 9.921 9.287 13.899 8.701 7.134 13.899 9.287c5.198 2.153 10.769 3.261 16.395 3.261s11.197-1.108 16.395-3.261c5.198-2.153 9.92-5.309 13.899-9.287l140.373-141.225 140.8 135.678c3.925 4.364 8.708 7.872 14.050 10.303s11.132 3.735 16.998 3.828c5.871 0.093 11.695-1.026 17.109-3.287 5.419-2.261 10.308-5.615 14.37-9.853s7.206-9.266 9.233-14.775c2.031-5.508 2.901-11.375 2.556-17.237-0.341-5.858-1.89-11.584-4.544-16.819-2.658-5.235-6.366-9.865-10.893-13.598l-170.667-164.693c-7.804-7.526-18.176-11.797-29.013-11.947z" />
<glyph unicode="&#xe902;" glyph-name="chevron-left" d="M570.027 234.671c-5.747 0.021-11.43 1.203-16.708 3.477-5.282 2.27-10.048 5.589-14.012 9.749l-164.693 170.667c-7.818 7.974-12.197 18.697-12.197 29.867 0 11.166 4.379 21.888 12.197 29.867l170.667 170.665c3.977 3.978 8.7 7.134 13.897 9.287 5.201 2.153 10.769 3.261 16.397 3.261s11.196-1.108 16.393-3.261c5.201-2.153 9.924-5.309 13.901-9.287s7.134-8.701 9.289-13.899c2.15-5.198 3.26-10.769 3.26-16.395s-1.109-11.197-3.26-16.395c-2.155-5.198-5.312-9.92-9.289-13.899l-140.8-140.372 135.68-140.8c7.945-7.996 12.407-18.812 12.407-30.080 0-11.273-4.463-22.089-12.407-30.080-4.036-4.006-8.836-7.164-14.11-9.289-5.278-2.129-10.923-3.174-16.61-3.085z" />
<glyph unicode="&#xe903;" glyph-name="chevron-right" d="M448 234.662c-5.615-0.030-11.183 1.045-16.38 3.17-5.199 2.121-9.927 5.252-13.914 9.203-3.999 3.968-7.173 8.687-9.339 13.888-2.166 5.197-3.281 10.773-3.281 16.405 0 5.636 1.115 11.213 3.281 16.41 2.166 5.201 5.34 9.92 9.339 13.884l141.227 140.373-135.68 141.229c-7.947 7.994-12.407 18.808-12.407 30.080s4.46 22.086 12.407 30.080c3.968 3.999 8.687 7.173 13.884 9.339 5.201 2.166 10.778 3.281 16.41 3.281s11.209-1.115 16.41-3.281c5.197-2.166 9.916-5.34 13.884-9.339l164.693-170.669c7.817-7.974 12.198-18.697 12.198-29.867 0-11.166-4.382-21.888-12.198-29.867l-170.667-170.667c-3.831-4.134-8.439-7.471-13.568-9.813-5.124-2.342-10.667-3.648-16.299-3.84v0z" />
<glyph unicode="&#xe904;" glyph-name="chevron-up" d="M682.667 341.333c-5.615-0.034-11.183 1.041-16.38 3.166s-9.929 5.252-13.914 9.207l-140.373 141.227-140.8-135.68c-7.994-7.949-18.808-12.407-30.080-12.407s-22.086 4.459-30.080 12.407c-3.999 3.964-7.173 8.683-9.339 13.884s-3.281 10.778-3.281 16.41c0 5.632 1.115 11.209 3.281 16.41 2.166 5.197 5.34 9.916 9.339 13.884l170.667 164.692c7.974 7.818 18.697 12.197 29.867 12.197s21.892-4.379 29.867-12.197l170.667-170.666c3.998-3.968 7.172-8.687 9.34-13.884 2.167-5.201 3.281-10.778 3.281-16.41s-1.114-11.209-3.281-16.41c-2.167-5.201-5.342-9.92-9.34-13.884-7.91-7.625-18.453-11.904-29.44-11.947v0z" />
<glyph unicode="&#xe905;" glyph-name="cross" d="M627.627 392.964c3.998-3.968 7.172-8.687 9.34-13.888 2.167-5.197 3.281-10.773 3.281-16.405 0-5.636-1.114-11.213-3.281-16.41-2.167-5.201-5.342-9.92-9.34-13.884-3.968-4.002-8.687-7.177-13.884-9.34-5.201-2.167-10.778-3.281-16.41-3.281s-11.209 1.114-16.41 3.281c-5.197 2.163-9.916 5.338-13.884 9.34l-55.040 55.467-55.040-55.467c-3.968-4.002-8.687-7.177-13.884-9.34-5.201-2.167-10.778-3.281-16.41-3.281s-11.209 1.114-16.409 3.281c-5.199 2.163-9.918 5.338-13.885 9.34-3.999 3.964-7.173 8.683-9.339 13.884-2.166 5.197-3.281 10.773-3.281 16.41 0 5.632 1.115 11.209 3.281 16.405 2.166 5.201 5.34 9.92 9.339 13.888l55.467 55.040-55.467 55.040c-8.034 8.034-12.548 18.931-12.548 30.292s4.514 22.259 12.548 30.293 18.931 12.548 30.293 12.548c11.362 0 22.259-4.514 30.293-12.548l55.040-55.465 55.040 55.465c8.034 8.034 18.931 12.548 30.293 12.548s22.259-4.514 30.293-12.548c8.034-8.034 12.548-18.931 12.548-30.293 0-11.36-4.514-22.257-12.548-30.292l-55.467-55.040 55.467-55.040z" />
<glyph unicode="&#xe906;" glyph-name="delete" d="M896 703.998h-213.333v71.253c-1.003 27.315-12.791 53.118-32.785 71.753-19.998 18.636-46.566 28.582-73.882 27.66h-128c-27.317 0.922-53.885-9.025-73.88-27.66s-31.785-44.438-32.786-71.753v-71.253h-213.333c-11.316 0-22.168-4.495-30.17-12.497s-12.497-18.854-12.497-30.17c0-11.316 4.495-22.168 12.497-30.17s18.854-12.497 30.17-12.497h42.667v-469.332c0-33.95 13.486-66.505 37.49-90.513 24.005-24.004 56.562-37.487 90.51-37.487h426.667c33.946 0 66.505 13.483 90.509 37.487 24.004 24.009 37.491 56.563 37.491 90.513v469.332h42.667c11.315 0 22.17 4.495 30.17 12.497s12.497 18.854 12.497 30.17c0 11.316-4.497 22.168-12.497 30.17s-18.854 12.497-30.17 12.497zM426.667 775.252c0 6.827 8.96 14.080 21.333 14.080h128c12.373 0 21.333-7.253 21.333-14.080v-71.253h-170.667v71.253z" />
<glyph unicode="&#xe907;" glyph-name="drag" d="M817.306 362.667h-610.609c-19.898 0-36.029-18.146-36.029-40.533v-4.267c0-22.387 16.131-40.533 36.029-40.533h610.609c19.895 0 36.028 18.146 36.028 40.533v4.267c0 22.387-16.132 40.533-36.028 40.533zM206.696 576h610.609c19.895 0 36.028-18.147 36.028-40.533v-4.267c0-22.387-16.132-40.533-36.028-40.533h-610.609c-19.898 0-36.029 18.146-36.029 40.533v4.267c0 22.386 16.131 40.533 36.029 40.533z" />
<glyph unicode="&#xe908;" glyph-name="edit" d="M827.733 646.828l-116.907 116.907c-15.258 14.332-35.251 22.555-56.179 23.106-20.924 0.55-41.323-6.61-57.314-20.119l-384-384.001c-13.792-13.905-22.379-32.137-24.32-51.627l-18.347-177.92c-0.575-6.246 0.236-12.548 2.375-18.449 2.138-5.897 5.553-11.255 9.999-15.684 3.987-3.955 8.715-7.083 13.913-9.207 5.199-2.121 10.765-3.196 16.38-3.166h3.84l177.92 16.213c19.49 1.941 37.717 10.53 51.626 24.32l384 384c14.903 15.746 22.959 36.758 22.4 58.431s-9.69 42.241-25.387 57.196v0zM682.667 504.32l-114.347 114.348 83.2 85.333 116.48-116.48-85.333-83.201z" />
<glyph unicode="&#xe909;" glyph-name="email" d="M810.667 789.333h-597.333c-33.948 0-66.505-13.486-90.51-37.49s-37.49-56.562-37.49-90.51v-426.667c0-33.946 13.486-66.505 37.49-90.509s56.562-37.491 90.51-37.491h597.333c33.946 0 66.505 13.487 90.509 37.491s37.491 56.563 37.491 90.509v426.667c0 33.948-13.487 66.505-37.491 90.51s-56.563 37.49-90.509 37.49v0zM782.080 704l-270.080-202.667-270.080 202.667h540.16zM810.667 192h-597.333c-11.316 0-22.168 4.497-30.17 12.497s-12.497 18.854-12.497 30.17v416l315.733-236.8c7.386-5.538 16.367-8.533 25.6-8.533s18.214 2.995 25.6 8.533l315.733 236.8v-416c0-11.315-4.497-22.17-12.497-30.17s-18.854-12.497-30.17-12.497z" />
<glyph unicode="&#xe90a;" glyph-name="google" d="M746.667 362.671c-12.493-43.456-37.248-82.385-71.3-112.124s-75.959-49.033-120.7-55.556c-34.987-5.077-70.635-3.034-104.811 6.012s-66.171 24.905-94.065 46.622c-27.894 21.717-51.112 48.849-68.261 79.761s-27.873 64.973-31.531 100.139c-2.833 35.298 1.688 70.801 13.279 104.265s29.998 64.158 54.058 90.143c24.061 25.985 53.25 46.696 85.724 60.822 32.476 14.127 67.526 21.361 102.94 21.248 33.182-0.047 66.057-6.418 96.853-18.773 4.851-2.177 10.338-2.465 15.39-0.808 5.047 1.658 9.301 5.141 11.917 9.768l61.44 113.067c1.323 2.604 2.116 5.444 2.338 8.356s-0.132 5.84-1.041 8.615c-0.913 2.775-2.364 5.342-4.271 7.555s-4.228 4.028-6.839 5.34c-65.975 29.871-138.466 42.456-210.65 36.571-72.182-5.885-141.679-30.046-201.944-70.209s-109.315-95.004-142.531-159.36c-33.216-64.355-49.503-136.105-47.329-208.494 4.205-107.516 48.4-209.591 123.929-286.225s176.948-122.304 284.392-128.073c112.55-4.988 222.507 34.739 305.877 110.515s133.389 181.453 139.136 293.969v85.333c-0.111 5.623-2.394 10.987-6.37 14.963s-9.34 6.259-14.963 6.37h-384c-5.658 0-11.085-2.249-15.087-6.251-3.998-4.002-6.246-9.425-6.246-15.083v-128c0-5.662 2.249-11.085 6.246-15.087 4.002-4.002 9.429-6.246 15.087-6.246h213.333z" />
<glyph unicode="&#xe90b;" glyph-name="list" d="M855.893 704h-517.12c-22.15 0-40.107-17.956-40.107-40.107v-5.12c0-22.15 17.956-40.107 40.107-40.107h517.12c22.148 0 40.107 17.956 40.107 40.107v5.12c0 22.15-17.958 40.107-40.107 40.107zM338.773 277.333h517.12c22.148 0 40.107-17.958 40.107-40.107v-5.12c0-22.148-17.958-40.107-40.107-40.107h-517.12c-22.15 0-40.107 17.958-40.107 40.107v5.12c0 22.148 17.956 40.107 40.107 40.107zM855.893 490.667h-517.12c-22.15 0-40.107-17.958-40.107-40.107v-5.12c0-22.148 17.956-40.107 40.107-40.107h517.12c22.148 0 40.107 17.958 40.107 40.107v5.12c0 22.148-17.958 40.107-40.107 40.107zM170.667 192c23.564 0 42.667 19.102 42.667 42.667s-19.103 42.667-42.667 42.667c-23.564 0-42.667-19.102-42.667-42.667s19.103-42.667 42.667-42.667zM170.667 405.333c23.564 0 42.667 19.102 42.667 42.667s-19.103 42.667-42.667 42.667c-23.564 0-42.667-19.102-42.667-42.667s19.103-42.667 42.667-42.667zM170.667 618.667c23.564 0 42.667 19.103 42.667 42.667s-19.103 42.667-42.667 42.667c-23.564 0-42.667-19.103-42.667-42.667s19.103-42.667 42.667-42.667z" />
<glyph unicode="&#xe90c;" glyph-name="lock" d="M725.333 618.667h-42.667v80.64c0 45.264-17.98 88.674-49.988 120.68-32.004 32.006-75.413 49.987-120.678 49.987s-88.673-17.981-120.68-49.987c-32.006-32.006-49.987-75.416-49.987-120.68v-80.64h-42.667c-33.948 0-66.505-13.486-90.51-37.49s-37.49-56.561-37.49-90.511v-341.333c0-33.946 13.486-66.505 37.49-90.509s56.562-37.491 90.51-37.491h426.667c33.946 0 66.505 13.487 90.509 37.491s37.491 56.563 37.491 90.509v341.333c0 33.95-13.487 66.506-37.491 90.511s-56.563 37.49-90.509 37.49zM426.667 699.307c-0.574 23.241 8.081 45.763 24.077 62.635 15.991 16.873 38.020 26.722 61.257 27.392 23.236-0.67 45.265-10.519 61.257-27.392 15.996-16.873 24.653-39.394 24.077-62.635v-80.64h-170.667v80.64zM512 192c-25.314 0-50.065 7.509-71.113 21.572-21.050 14.063-37.456 34.057-47.144 57.446-9.688 23.386-12.223 49.122-7.284 73.954 4.939 24.828 17.13 47.637 35.031 65.536 17.9 17.903 40.709 30.093 65.537 35.034 24.832 4.937 50.569 2.402 73.958-7.283 23.386-9.69 43.379-26.095 57.442-47.147 14.067-21.047 21.572-45.794 21.572-71.113 0-33.946-13.487-66.505-37.491-90.509s-56.563-37.491-90.509-37.491zM512 277.333c23.565 0 42.667 19.102 42.667 42.667s-19.102 42.667-42.667 42.667c-23.565 0-42.667-19.102-42.667-42.667s19.102-42.667 42.667-42.667z" />
<glyph unicode="&#xe90d;" glyph-name="logo" d="M37.238 8.119c15.839-2.628 33.362-3.942 52.568-3.942 74.838 0 131.605 21.722 170.301 65.161 39.062 43.081 58.593 105.506 58.593 187.281v439.306c0 25.247 20.467 45.714 45.714 45.714h584.433c41.506 0 75.153 33.648 75.153 75.154s-33.647 75.154-75.153 75.154h-578.712c-100.989 0-182.857-81.868-182.857-182.857v-456.854c0-90.539-35.776-135.804-107.328-135.804-3.076 0-6.226 0.068-9.451 0.213-36.289 1.591-70.498-23.902-70.498-60.224 0-23.206 14.345-44.501 37.238-48.303zM391.679 516.177c0 41.505 33.648 75.153 75.154 75.153h482.014c41.506 0 75.153-33.648 75.153-75.153s-33.647-75.157-75.153-75.157h-482.014c-41.506 0-75.154 33.651-75.154 75.157zM391.679 215.556c0 41.51 33.648 75.157 75.154 75.157h482.014c41.506 0 75.153-33.647 75.153-75.157 0-41.506-33.647-75.153-75.153-75.153h-482.014c-41.506 0-75.154 33.647-75.154 75.153z" />
<glyph unicode="&#xe90e;" glyph-name="logout" d="M298.667 704c11.316 0 22.168 4.495 30.17 12.497s12.497 18.854 12.497 30.17c0 11.316-4.495 22.168-12.497 30.17s-18.854 12.497-30.17 12.497h-85.333c-11.316 0-22.168-4.495-30.17-12.497s-12.497-18.854-12.497-30.17v-597.333c0-11.315 4.495-22.17 12.497-30.17s18.854-12.497 30.17-12.497h85.333c11.316 0 22.168 4.497 30.17 12.497s12.497 18.854 12.497 30.17c0 11.315-4.495 22.17-12.497 30.17s-18.854 12.497-30.17 12.497h-42.667v512h42.667zM888.32 472.747l-120.32 170.667c-6.524 9.199-16.427 15.439-27.541 17.358-11.11 1.919-22.532-0.64-31.765-7.118-4.617-3.234-8.542-7.349-11.558-12.109s-5.056-10.070-6.012-15.623c-0.951-5.554-0.794-11.241 0.465-16.733s3.593-10.682 6.865-15.267l73.387-103.253h-345.173c-11.316 0-22.168-4.497-30.17-12.497s-12.497-18.854-12.497-30.17c0-11.315 4.495-22.17 12.497-30.17s18.854-12.497 30.17-12.497h341.333l-76.8-102.4c-3.362-4.484-5.807-9.583-7.198-15.010s-1.698-11.076-0.909-16.623c0.794-5.547 2.671-10.884 5.525-15.706s6.63-9.033 11.115-12.395c7.386-5.538 16.367-8.533 25.6-8.533 6.622 0 13.158 1.54 19.081 4.506 5.926 2.961 11.081 7.262 15.053 12.561l128 170.667c5.466 7.215 8.491 15.983 8.644 25.033 0.154 9.054-2.573 17.916-7.791 25.314v0z" />
<glyph unicode="&#xe90f;" glyph-name="minus" d="M810.667 405.333h-597.333c-11.316 0-22.168 4.497-30.17 12.497s-12.497 18.854-12.497 30.17c0 11.315 4.495 22.17 12.497 30.17s18.854 12.497 30.17 12.497h597.333c11.315 0 22.17-4.497 30.17-12.497s12.497-18.854 12.497-30.17c0-11.315-4.497-22.17-12.497-30.17s-18.854-12.497-30.17-12.497z" />
<glyph unicode="&#xe910;" glyph-name="plus" d="M810.667 490.667h-256v256c0 11.316-4.497 22.168-12.497 30.17s-18.854 12.497-30.17 12.497c-11.315 0-22.17-4.495-30.17-12.497s-12.497-18.854-12.497-30.17v-256h-256c-11.316 0-22.168-4.497-30.17-12.497s-12.497-18.854-12.497-30.17c0-11.315 4.495-22.17 12.497-30.17s18.854-12.497 30.17-12.497h256v-256c0-11.315 4.497-22.17 12.497-30.17s18.854-12.497 30.17-12.497c11.315 0 22.17 4.497 30.17 12.497s12.497 18.854 12.497 30.17v256h256c11.315 0 22.17 4.497 30.17 12.497s12.497 18.854 12.497 30.17c0 11.315-4.497 22.17-12.497 30.17s-18.854 12.497-30.17 12.497z" />
<glyph unicode="&#xe911;" glyph-name="reset" d="M158.771 386.436c10.751 3.354 22.39 2.317 32.38-2.88 9.991-5.193 17.522-14.127 20.953-24.853 20.157-61.628 59.453-115.221 112.172-152.977s116.108-57.702 180.948-56.943c80.196-0.909 157.487 30.020 214.912 86.007 57.429 55.987 90.308 132.463 91.435 212.659-1.126 80.196-34.005 156.674-91.435 212.662-57.425 55.988-134.716 86.918-214.912 86.006-72.431 0.175-142.632-25.037-198.401-71.253l92.589 15.36c5.549 0.913 11.221 0.72 16.695-0.567s10.641-3.645 15.202-6.936c4.557-3.291 8.427-7.451 11.371-12.241 2.948-4.79 4.915-10.115 5.798-15.669 0.913-5.549 0.721-11.223-0.567-16.698s-3.644-10.639-6.938-15.2c-3.29-4.56-7.45-8.424-12.241-11.371-4.789-2.947-10.115-4.917-15.669-5.798l-180.906-29.867h-7.252c-4.947 0.006-9.857 0.872-14.508 2.56-1.563 0.593-3.006 1.46-4.265 2.56-3.059 1.137-5.935 2.719-8.534 4.693l-3.839 4.693c0 2.133-3.84 3.84-5.547 6.4s0 4.267-2.133 5.973c-1.179 2.485-2.178 5.052-2.987 7.68l-32 170.667c-1.065 5.603-1.015 11.361 0.146 16.945s3.408 10.885 6.617 15.599c3.209 4.715 7.317 8.751 12.086 11.879s10.108 5.285 15.711 6.35c5.603 1.065 11.361 1.015 16.945-0.145s10.884-3.409 15.599-6.618c9.522-6.481 16.079-16.48 18.229-27.796l11.518-61.867c71.424 61.899 162.767 95.982 257.281 96 102.831 0.911 201.818-39.010 275.251-111.001 73.429-71.991 115.302-170.172 116.429-273-1.126-102.827-42.999-201.007-116.429-272.998-73.434-71.991-172.42-111.91-275.251-111.002-83.334-1.28-164.878 24.23-232.625 72.777-67.747 48.542-118.117 117.555-143.695 196.877-1.618 5.466-2.127 11.196-1.495 16.858s2.393 11.14 5.177 16.111c2.784 4.971 6.534 9.335 11.031 12.83 4.497 3.499 9.65 6.063 15.153 7.535z" />
<glyph unicode="&#xe912;" glyph-name="settings" d="M866.987 560.213h-46.507c-5.973 0-10.24 4.693-12.8 11.093-1.523 2.351-2.334 5.092-2.334 7.893s0.811 5.543 2.334 7.893l34.56 31.573c6.771 6.515 12.156 14.336 15.821 22.989 3.669 8.653 5.542 17.96 5.513 27.358-0.009 9.455-1.899 18.814-5.564 27.531-3.661 8.717-9.024 16.618-15.77 23.242l-57.173 58.453c-6.622 6.67-14.498 11.963-23.177 15.575s-17.984 5.472-27.383 5.472c-9.399 0-18.705-1.86-27.383-5.472s-16.555-8.905-23.177-15.575l-32.853-31.573c-2.611-1.673-5.645-2.562-8.747-2.562s-6.135 0.889-8.747 2.562c-2.577 0.961-4.826 2.634-6.49 4.825-1.66 2.191-2.667 4.809-2.897 7.549v43.947c0.009 18.647-7.249 36.563-20.237 49.946-12.983 13.383-30.673 21.179-49.31 21.734h-82.773c-19.051 0-37.325-7.538-50.837-20.969-13.51-13.431-21.157-31.662-21.27-50.711v-46.507c0-5.973-4.693-10.24-11.093-12.8-2.351-1.524-5.092-2.336-7.893-2.336s-5.543 0.811-7.893 2.336l-31.573 34.56c-13.513 13.433-31.721 21.083-50.773 21.333-9.391-0.018-18.683-1.915-27.329-5.579s-16.472-9.020-23.017-15.754l-58.453-57.173c-6.865-6.644-12.323-14.6-16.051-23.396s-5.649-18.251-5.649-27.804c0-9.553 1.921-19.008 5.649-27.804s9.186-16.752 16.051-23.396l31.573-31.573c1.673-2.611 2.562-5.646 2.562-8.747s-0.889-6.136-2.562-8.747c-0.961-2.576-2.634-4.827-4.825-6.489s-4.809-2.667-7.549-2.898h-43.947c-19.011 0-37.243-7.552-50.685-20.995s-20.995-31.673-20.995-50.685v-80.64c0-19.051 7.538-37.325 20.969-50.837 13.431-13.508 31.662-21.158 50.711-21.269h46.507c5.973 0 10.24-4.693 12.8-11.093 1.524-2.351 2.336-5.090 2.336-7.893s-0.811-5.542-2.336-7.893l-34.56-31.573c-13.433-13.513-21.083-31.723-21.333-50.773-0.015-9.459 1.865-18.825 5.53-27.546s9.038-16.619 15.804-23.228l57.173-58.027c6.623-6.669 14.5-11.964 23.177-15.573 8.677-3.614 17.984-5.474 27.383-5.474s18.705 1.86 27.383 5.474c8.678 3.61 16.555 8.905 23.177 15.573l32.853 31.573c2.611 1.673 5.646 2.56 8.747 2.56s6.136-0.887 8.747-2.56c2.576-0.96 4.827-2.633 6.489-4.826 1.662-2.189 2.667-4.809 2.898-7.548v-46.507c0.663-18.564 8.507-36.143 21.879-49.037s31.224-20.096 49.801-20.083h80.64c19.051 0 37.325 7.539 50.837 20.966 13.508 13.431 21.158 31.663 21.269 50.714v46.507c0 5.973 4.693 10.24 11.093 12.8 2.351 1.523 5.090 2.334 7.893 2.334s5.542-0.811 7.893-2.334l32.427-32.853c13.513-13.431 31.723-21.082 50.773-21.333 9.391 0.017 18.684 1.916 27.328 5.581 8.649 3.661 16.474 9.020 23.019 15.753l57.173 57.173c6.669 6.622 11.964 14.498 15.573 23.177 3.614 8.678 5.474 17.984 5.474 27.383s-1.86 18.705-5.474 27.383c-3.61 8.678-8.905 16.555-15.573 23.177l-31.147 31.147c-1.523 2.351-2.334 5.090-2.334 7.893s0.811 5.542 2.334 7.893c0.96 2.577 2.633 4.826 4.826 6.49 2.189 1.66 4.809 2.667 7.548 2.897h46.507c18.492 0.661 36.006 8.444 48.892 21.726 12.881 13.278 20.13 31.027 20.228 49.527v82.773c0 19.051-7.539 37.325-20.966 50.837-13.431 13.51-31.663 21.157-50.714 21.27zM512 298.667c-29.534 0-58.406 8.759-82.965 25.169-24.558 16.405-43.698 39.731-55.001 67.017s-14.26 57.314-8.498 86.281c5.762 28.971 19.985 55.578 40.87 76.462s47.491 35.107 76.462 40.87c28.966 5.762 58.995 2.805 86.281-8.498s50.611-30.443 67.017-55.001c16.41-24.559 25.169-53.431 25.169-82.965 0-39.607-15.731-77.589-43.738-105.596s-65.988-43.738-105.596-43.738zM512 384c35.345 0 64 28.655 64 64s-28.655 64-64 64c-35.345 0-64-28.655-64-64s28.655-64 64-64z" />
<glyph unicode="&#xe913;" glyph-name="user" d="M512 490.667c33.754 0 66.752 10.010 94.818 28.762 28.066 18.754 49.941 45.408 62.857 76.593 12.919 31.185 16.299 65.501 9.711 98.607-6.583 33.106-22.839 63.516-46.707 87.384s-54.276 40.122-87.381 46.708c-33.109 6.585-67.422 3.206-98.607-9.712-31.187-12.917-57.841-34.792-76.594-62.858s-28.762-61.063-28.762-94.817c0-45.264 17.981-88.673 49.987-120.68s75.415-49.987 120.68-49.987zM768 64c11.315 0 22.17 4.497 30.17 12.497s12.497 18.854 12.497 30.17c0 79.211-31.467 155.179-87.479 211.187-56.009 56.013-131.977 87.479-211.187 87.479s-155.178-31.467-211.189-87.479c-56.011-56.009-87.477-131.977-87.477-211.187 0-11.315 4.495-22.17 12.497-30.17s18.854-12.497 30.17-12.497h512z" />
</font>
</defs>
</svg>
